<svg width="398" height="396" viewBox="0 0 398 396" fill="none" xmlns="http://www.w3.org/2000/svg">
<path opacity="0.12" d="M74.5648 362.323C59.705 351.091 46.6377 337.419 35.7751 321.863C58.2531 320.715 76.6083 339.644 74.5648 362.323Z" fill="#0297A6"/>
<path d="M397 197.955C397 307.294 308.396 399.104 199.215 395.91C193.049 395.749 180.089 395.964 173.493 395.91C172.848 395.91 172.184 395.892 171.539 395.874C260.59 393.632 332.237 320.787 332.667 231.184C333.276 138.872 258.35 63.8739 166.126 64.4839C76.0346 64.8966 2.2014 137.436 0.839097 227.38C0.821172 227.273 0.821192 227.201 0.803267 227.093C-0.0392089 219.288 0.803267 207.016 0.803267 199.032C0.803267 89.7105 89.9981 0 199.233 0C308.468 0 397.018 88.6339 397.018 197.973L397 197.955Z" fill="#DCF3F4"/>
<path opacity="0.3" d="M74.5649 362.323C74.5469 362.771 74.5111 363.238 74.4394 363.704C73.9375 367.777 72.7186 371.653 70.944 375.223C51.4954 362.789 35.1119 345.421 22.9767 324.824C26.0777 323.46 29.4118 322.509 32.8713 322.079C33.8393 321.953 34.8072 321.881 35.7572 321.827C58.2352 320.679 76.5904 339.608 74.547 362.287L74.5649 362.323Z" fill="#0297A6"/>
<path d="M332.667 231.166C332.237 320.787 260.591 393.614 171.539 395.856C170.374 395.892 169.227 395.91 168.062 395.91C159.511 395.964 149.814 395.892 141.192 395.892C140.887 395.892 140.583 395.892 140.296 395.874C145.189 395.749 150.011 395.336 154.743 394.69C218.431 385.881 267.402 330.493 268.316 264.359C269.356 189.056 208.25 127.891 133.036 128.95C67.7892 129.847 13.1896 177.734 2.61387 240.316C1.61007 246.291 1.00062 252.391 0.821367 258.599C0.803442 258.474 0.803407 258.348 0.785482 258.223C-0.0569931 250.92 0.749632 236.477 0.785482 229.121C0.785482 228.528 0.785517 227.936 0.821367 227.344C2.18367 137.401 76.0168 64.8607 166.108 64.448C258.332 63.838 333.259 138.836 332.649 231.148L332.667 231.166Z" fill="#B3E2E5"/>
<path opacity="0.47" d="M74.5648 362.323C74.5469 362.771 74.511 363.238 74.4393 363.704C73.9374 367.777 72.7186 371.653 70.944 375.223C68.9364 379.296 66.2118 382.92 62.9136 385.988C39.1271 375.582 20.1624 357.496 9.71216 334.584C13.333 330.404 17.8501 327.049 22.9767 324.824C26.0777 323.46 29.4118 322.509 32.8713 322.079C33.8392 321.953 34.8072 321.881 35.7572 321.827C58.2352 320.679 76.5904 339.608 74.5469 362.287L74.5648 362.323Z" fill="#0297A6"/>
<path d="M268.334 264.359C267.42 330.493 218.431 385.881 154.761 394.69C150.029 395.336 145.207 395.749 140.314 395.874H139.901C138.898 395.892 137.894 395.91 136.908 395.91C130.885 395.91 117.424 395.892 111.204 395.892C110.612 395.892 110.003 395.892 109.411 395.874C113.821 395.731 118.14 395.264 122.389 394.529C126.852 393.757 131.244 392.645 135.492 391.245C174.533 378.435 202.818 340.846 204.019 297.588C205.615 239.312 158.203 191.855 99.9825 193.452C57.536 194.618 21.0228 221.908 6.96962 259.855C5.41015 264.072 4.13746 268.396 3.15159 272.827C1.78929 278.91 1.00061 285.208 0.82136 291.649C0.82136 283.359 0.71381 268.18 0.82136 260.609C0.82136 259.963 0.839265 259.281 0.85719 258.635C1.03644 252.427 1.64589 246.309 2.64969 240.352C13.2254 177.77 67.825 129.901 133.072 128.986C208.285 127.927 269.392 189.092 268.352 264.395L268.334 264.359Z" fill="#86CED1"/>
<path opacity="0.65" d="M74.5649 362.323C74.547 362.771 74.5111 363.238 74.4394 363.704C73.9375 367.777 72.7186 371.653 70.9441 375.223C68.9365 379.296 66.2118 382.92 62.9136 385.988C60.1353 388.59 56.9805 390.743 53.503 392.394C29.1429 385.181 12.4189 367.113 4.90833 341.582C6.23478 339.07 7.84801 336.719 9.71221 334.584C13.3331 330.404 17.8502 327.049 22.9767 324.824C26.0777 323.46 29.4118 322.509 32.8714 322.079C33.8393 321.953 34.8072 321.881 35.7573 321.827C58.2352 320.679 76.5904 339.608 74.547 362.287L74.5649 362.323Z" fill="#0297A6"/>
<path d="M203.983 297.57C202.8 340.828 174.497 378.417 135.456 391.227C131.208 392.645 126.816 393.739 122.353 394.511C118.105 395.246 113.785 395.713 109.375 395.856C108.174 395.892 106.937 395.91 105.718 395.91C99.0862 395.874 85.0151 395.874 78.9564 395.874C78.4725 395.874 77.9526 395.874 77.4686 395.856C81.6989 395.695 85.8217 395.067 89.8011 394.044C93.888 393.004 97.8315 391.532 101.56 389.684C105.109 387.944 108.479 385.863 111.652 383.494C127.766 371.473 138.521 352.006 139.668 330.763C141.873 289.478 108.103 255.693 66.8571 257.882C46.6018 258.958 27.6909 269.831 15.3405 284.436C12.849 287.361 10.6263 290.447 8.72627 293.64C5.67902 298.7 3.42046 304.047 2.11194 309.411C1.34116 312.515 0.893016 315.637 0.803391 318.723C0.803391 318.67 0.785449 318.58 0.785449 318.526C0.516574 315.009 0.677899 295.506 0.785449 291.685V291.595C0.964699 285.154 1.75343 278.856 3.11573 272.774C4.10161 268.342 5.37429 264 6.93377 259.802C21.0049 221.854 57.5002 194.564 99.9466 193.398C158.167 191.801 205.579 239.258 203.983 297.534V297.57Z" fill="#5BBCC4"/>
<path d="M139.651 330.78C138.503 352.006 127.748 371.491 111.634 383.512C108.461 385.881 105.109 387.962 101.542 389.702C97.8136 391.55 93.8701 393.022 89.7832 394.062C85.8039 395.085 81.6811 395.713 77.4508 395.874C76.4829 395.91 75.5329 395.928 74.547 395.928C69.1516 395.892 48.8425 395.892 39.4677 395.892C40.4715 395.874 41.4753 395.767 42.4971 395.641C46.3689 395.157 50.0972 394.044 53.503 392.394C56.9804 390.761 60.1352 388.59 62.9136 385.988C66.1939 382.92 68.9364 379.278 70.944 375.223C72.7186 371.653 73.9196 367.759 74.4394 363.704C74.4932 363.238 74.5469 362.771 74.5649 362.323C76.6083 339.644 58.2531 320.715 35.7752 321.863C34.8431 321.899 33.8572 321.989 32.8892 322.114C29.4118 322.545 26.0957 323.478 22.9946 324.86C17.8681 327.084 13.3331 330.44 9.73014 334.62C7.86594 336.737 6.25265 339.088 4.9262 341.618C2.90067 345.439 1.52046 349.656 0.964784 354.087C0.875158 354.733 0.821372 355.415 0.785522 356.061V319.997C0.785522 319.585 0.78554 319.172 0.803465 318.777C0.89309 315.691 1.34123 312.569 2.11201 309.465C3.42054 304.083 5.67909 298.754 8.72634 293.694C10.6264 290.5 12.849 287.414 15.3406 284.49C27.691 269.903 46.6019 259.03 66.8571 257.936C108.103 255.747 141.873 289.532 139.669 330.816L139.651 330.78Z" fill="#2FA9B2"/>
<path opacity="0.82" d="M74.5648 362.323C74.5469 362.771 74.511 363.238 74.4393 363.704C73.9374 367.777 72.7186 371.653 70.944 375.223C68.9364 379.296 66.2118 382.92 62.9136 385.988C60.1352 388.59 56.9804 390.743 53.5029 392.394C50.0972 394.044 46.3688 395.157 42.497 395.641C41.4753 395.767 40.4715 395.874 39.4677 395.892H35.8289C35.8289 395.892 1.35908 356.186 0.749634 356.186V356.043C0.785484 355.397 0.857195 354.715 0.928895 354.069C1.48457 349.638 2.86478 345.421 4.89031 341.6C6.21676 339.088 7.83 336.737 9.6942 334.602C13.315 330.422 17.8321 327.066 22.9587 324.842C26.0597 323.478 29.3938 322.527 32.8533 322.096C33.8213 321.971 34.7892 321.899 35.7392 321.845C58.2172 320.697 76.5724 339.626 74.529 362.305L74.5648 362.323Z" fill="#0297A6"/>
<path d="M74.5648 362.323C74.5469 362.771 74.511 363.238 74.4393 363.704C73.9374 367.777 72.7186 371.653 70.944 375.223C68.9364 379.296 66.2118 382.92 62.9136 385.988C60.1352 388.59 56.9804 390.743 53.5029 392.394C50.0972 394.044 46.3688 395.157 42.497 395.641C41.4753 395.767 40.4715 395.874 39.4677 395.892C38.3384 395.946 37.2449 395.928 36.1336 395.892H35.8289C15.3227 394.888 -0.791897 377.197 0.767579 356.061C0.803429 355.415 0.875085 354.733 0.946785 354.087C1.50246 349.656 2.88273 345.439 4.90825 341.618C6.2347 339.106 7.84794 336.755 9.71214 334.62C13.333 330.44 17.8501 327.084 22.9766 324.86C26.0777 323.496 29.4118 322.545 32.8713 322.114C33.8392 321.989 34.8072 321.917 35.7572 321.863C58.2351 320.715 76.5904 339.644 74.5469 362.323H74.5648Z" fill="#0297A6"/>
</svg>
